# xmcd
#
# Track frame offsets:
#	150
#	2550
#	23095
#	37830
#	49700
#	61775
#	79390
#	98410
#	118270
#	140890
#	147660
#	167600
#	186085
#	194470
#	206345
#	225405
#	250945
#	294220
#	311845
#
# Disc length: 4339 seconds
#
# Revision: 1
# Processed by: cddbd v1.5.1PL2 Copyright (c) Steve Scherf et al.
# Submitted via: EasyCDDAExtractor 8.0.2.1
#
DISCID=0310f113
DTITLE=Alice Cooper - Poughkeepsie 11-10-87
DYEAR=1987
DGENRE=Hard Rock
TTITLE0=Intro
TTITLE1=Teenage Frankenstein
TTITLE2=No More Mr Nice Guy
TTITLE3=Billion Dollar Babies
TTITLE4=Is It My Body
TTITLE5=Eighteen
TTITLE6=Go To Hell
TTITLE7=Prince Of Darkness
TTITLE8=Chop Chop Chop
TTITLE9=Gail
TTITLE10=Roses On White Lace
TTITLE11=Only Women Bleed
TTITLE12=Devil's Food
TTITLE13=Black Widow
TTITLE14=Dead Babies
TTITLE15=Killers
TTITLE16=School's Out
TTITLE17=Freedom
TTITLE18=Under My Wheels
EXTD=
EXTT0=
EXTT1=
EXTT2=
EXTT3=
EXTT4=
EXTT5=
EXTT6=
EXTT7=
EXTT8=
EXTT9=
EXTT10=
EXTT11=
EXTT12=
EXTT13=
EXTT14=
EXTT15=
EXTT16=
EXTT17=
EXTT18=
PLAYORDER=
